<svg height="512" viewBox="0 0 512 512" width="512" xmlns="http://www.w3.org/2000/svg"><g id="ARROW_48" data-name="ARROW 48"><path d="m505 7a24 24 0 0 0 -34 0l-159.4 159.4v-106.68a24 24 0 1 0 -48 0v164a24.68 24.68 0 0 0 24.68 24.68h163.89a24 24 0 0 0 24-23.54c.26-13.45-11.08-24.46-24.54-24.46h-106l159.37-159.4a24 24 0 0 0 0-34z"/><path d="m223.73 263.36h-163.89a24 24 0 0 0 -24 23.54c-.26 13.45 11.08 24.46 24.54 24.46h106.05l-159.43 159.43a24 24 0 0 0 0 33.94 24 24 0 0 0 33.94 0l159.4-159.4v106.72a24 24 0 1 0 48 0v-164a24.67 24.67 0 0 0 -24.61-24.69z"/></g></svg>