<svg id="Capa_1" enable-background="new 0 0 512 512" height="512" viewBox="0 0 512 512" width="512" xmlns="http://www.w3.org/2000/svg"><path d="m429.43 100.125h-76.131c-12.049 0-23.371 4.698-31.88 13.228l-58.76 58.9-7.35-30.107c-3.218-13.18-10.976-24.237-21.373-31.687 8.103-9.582 13.002-21.956 13.002-35.458 0-30.327-24.673-55-55-55s-55 24.673-55 55c0 14.224 5.428 27.203 14.32 36.978-9.009 8.234-14.67 20.073-14.67 33.211v153.435l-28.168 28.235h-25.85c-45.529 0-82.57 37.041-82.57 82.57s37.041 82.57 82.57 82.57h.126l76.502-.641c11.886-.1 23.061-4.783 31.465-13.188l212.906-212.906h25.86c45.529 0 82.57-37.041 82.57-82.57s-37.04-82.57-82.569-82.57zm-32.074 135.14c-3.979 0-7.794 1.581-10.606 4.394l-217.3 217.3c-2.806 2.805-6.536 4.369-10.504 4.402l-76.437.639c-28.958-.035-52.509-23.604-52.509-52.57 0-28.987 23.583-52.57 52.57-52.57h32.073c3.984 0 7.805-1.585 10.619-4.406l217.395-217.914c2.841-2.847 6.62-4.415 10.642-4.415h76.131c28.987 0 52.57 23.583 52.57 52.57s-23.583 52.57-52.57 52.57zm-205.418-185.265c13.785 0 25 11.215 25 25s-11.215 25-25 25-25-11.215-25-25 11.215-25 25-25zm-25.349 95.189c0-8.271 6.729-15 15-15h20.289c11.559 0 21.546 7.842 24.287 19.071l11.684 47.862-71.26 71.43z"/><path d="m447 342h-59.953c-8.284 0-15 6.716-15 15s6.716 15 15 15h23.74l-54.393 54.394c-5.858 5.858-5.858 15.355 0 21.213 2.928 2.929 6.767 4.393 10.606 4.393s7.678-1.464 10.606-4.394l54.394-54.393v23.74c0 8.284 6.716 15 15 15s15-6.716 15-15v-59.953c0-8.284-6.716-15-15-15z"/></svg>