<svg height="512" viewBox="0 0 512 512" width="512" xmlns="http://www.w3.org/2000/svg"><g id="ARROW_48" data-name="ARROW 48"><path d="m270.62 241.38a24 24 0 0 0 33.95 0l159.43-159.38v106.69a24 24 0 0 0 48 0v-164a24.66 24.66 0 0 0 -24.67-24.69h-163.9a24 24 0 0 0 -24 23.53c-.25 13.47 11.09 24.47 24.57 24.47h106l-159.4 159.4a24 24 0 0 0 .02 33.98z"/><path d="m24.67 512h163.9a24 24 0 0 0 24-23.53c.25-13.47-11.09-24.47-24.57-24.47h-106l159.4-159.4a24 24 0 0 0 0-33.94 24 24 0 0 0 -33.95 0l-159.45 159.34v-106.69a24 24 0 0 0 -48 0v164a24.66 24.66 0 0 0 24.67 24.69z"/></g></svg>