<svg id="Layer_1" enable-background="new 0 0 24 24" viewBox="0 0 24 24" xmlns="http://www.w3.org/2000/svg"><path d="m12 6c1.1 0 2-.9 2-2s-.9-2-2-2-2 .9-2 2 .9 2 2 2zm7.5 14h-1v-5c0-.6-.4-1-1-1h-5v-2h5c.6 0 1-.4 1-1s-.4-1-1-1h-5v-2c0-.6-.4-1-1-1s-1 .4-1 1v7c0 .6.4 1 1 1h5v5c0 .6.4 1 1 1h2c.6 0 1-.4 1-1s-.4-1-1-1zm-6.8-1.6c-1.3 1.8-3.8 2.1-5.6.8-1-.8-1.6-1.9-1.6-3.2 0-1.6.9-3 2.4-3.7.5-.2.7-.8.5-1.3s-.8-.7-1.3-.5c-3 1.3-4.4 4.9-3.1 7.9s4.9 4.4 7.9 3.1c1-.4 1.8-1.1 2.4-1.9.3-.4.2-1.1-.2-1.4s-1.1-.2-1.4.2z" fill="rgb(0,0,0)"/></svg>